<svg clip-rule="evenodd" fill-rule="evenodd" stroke-linejoin="round" stroke-miterlimit="2" viewBox="0 0 64 64" xmlns="http://www.w3.org/2000/svg" xmlns:serif="http://www.serif.com/"><g transform="translate(-80 -640)"><g id="exit-menu-bar-ui-user-interface" transform="translate(80 640)"><path d="m0 0h64v64h-64z" fill="none"/><g transform="matrix(-.799 -.799 .566 -.566 244.218 892.494)"><path d="m695.769 573c0-4.139-2.378-7.5-5.307-7.5h-38.924c-2.929 0-5.307 3.361-5.307 7.5s2.378 7.5 5.307 7.5h38.924c2.929 0 5.307-3.361 5.307-7.5zm-3.538 0c0 1.38-.793 2.5-1.769 2.5h-38.924c-.976 0-1.769-1.12-1.769-2.5s.793-2.5 1.769-2.5h38.924c.976 0 1.769 1.12 1.769 2.5z" fill="#364f6b"/></g><g transform="matrix(0 1 1 0 -560 -720)"><g><path d="m746.343 592 5.657 5.657-12.728 12.728c-1.561 1.561-4.096 1.561-5.657 0s-1.561-4.096 0-5.657zm11.314 0-5.657-5.657 12.728-12.728c1.561-1.561 4.096-1.561 5.657 0s1.561 4.096 0 5.657l-6.728 6.728" fill="#3fc1c9"/></g><g><path d="m754.828 586.343 11.314-11.314c.781-.78 2.048-.78 2.829 0 .78.781.78 2.048 0 2.829l-6.728 6.728c-.781.78-.781 2.048 0 2.828.78.781 2.048.781 2.828 0 0 0 6.728-6.728 6.728-6.728 2.342-2.341 2.342-6.143 0-8.485s-6.144-2.342-8.485 0l-12.728 12.728c-.781.781-.781 2.047 0 2.828l5.657 5.657c.78.781 2.048.781 2.828 0 .781-.78.781-2.048 0-2.828zm-9.899 4.243c.781-.781 2.047-.781 2.828 0l5.657 5.657c.781.781.781 2.047 0 2.828l-12.728 12.728c-2.341 2.342-6.143 2.342-8.485 0s-2.342-6.144 0-8.485c0 0 12.728-12.728 12.728-12.728zm4.243 7.071-11.314 11.314c-.781.78-2.048.78-2.829 0-.78-.781-.78-2.048 0-2.829l11.314-11.314z" fill="#364f6b"/></g></g></g></g></svg>