<svg id="Layer_1" enable-background="new 0 0 512 512" height="512" viewBox="0 0 512 512" width="512" xmlns="http://www.w3.org/2000/svg"><g><path d="m167.1 452.6c-6.4-1.4-12.9-1.9-19.1-4.2-4.3-1.6-8.5-3.6-12.8-5.2-2-.8-3.9-1.2-5.8-1.3-.3-1.3-1-2.4-2.3-3.1-14.9-8.5-33 19.6-17.7 30.1 8.2 5.7 18.8 4.7 28.2 3.4 10-1.4 20.2-3.5 29.6-7.2 5.3-2.2 6.7-11-.1-12.5z" fill="#ffeee6"/><path d="m117.7 440.7c-7.5 3.8-12.6 12.7-13.8 20.8-.4 2.6 3.1 4.6 4.6 1.9 1.7-3 3.3-6 5.1-8.9 2.1-3.5 5.1-5.9 8.2-8.5 3-2.6-.9-7-4.1-5.3z" fill="#fff8f5"/><path d="m157 456.6c-.1 0-.2 0-.3-.1-1.3-1.2-3.1-1.8-5-1.3-3.4-1-6.7-2.2-10.2-3-3.3-7-10.8-13.9-18.6-14.9-3.1-.4-3.6 3.5-2.2 5.3 3.3 4.1 7.6 7.4 10.5 11.8.4.5 1.3 2.2 1.7 3.1-3.1.8-6.1 1.7-9.2 2.4-6.3 1.6-12.8 1.5-19 3.5-2.5.8-2.5 3.7-.6 5 1.6 13.3 45.9.5 52-2.8 0 0 .1-.1.1-.1 1.5-.1 2.8-.9 3.6-2.2.7-1.2.8-2.2.5-3.6-.4-1.3-1.8-2.8-3.3-3.1z" fill="#f4c1b8"/><g><path d="m130.6 430.2c-8.7-3.8-19.3 6.3-24.7 12-6 6.4-12.3 17.1-7.9 26 5 10 16.4 10.4 26.2 9.7 7.6-.5 15.1-2 22.6-3.4 9.2-1.8 20.7-2.6 28.6-7.8 1.8-1.2 2-4.9-.7-5.2-11.5-1.6-24.6 3.8-36 5.9-8.2 1.5-21.6 5-29.6.6-8.8-4.9 0-16.2 4.3-20.8 5-5.5 12.9-8.1 17.5-13.6.9-1 1.1-2.8-.3-3.4z" fill="#851919"/></g><g><g fill="#ffeee6"><path d="m417.6 141.4c-29.6 3.3-58.3 10.8-88.2 12.8s-59.9 1.6-89.8 1.2c-29.6-.3-59.3 1.1-88.9-.1-13-.5-26-2.1-38.9-3.1-11-.9-22.7-2-33.2-5.3-5.2-1.6-8.9 6.3-4.7 9.5 1.4 1 2.9 2 4.4 2.9 0 4.2.4 8.3.8 12.5.5 5.5.4 11.9 1.6 17.7.1.8.1 1.5.1 2.3.2 2.2 1.2 3.9 2.6 5 1.1 1.4 2.7 1.9 4.2 1.7.3 0 .7.1 1 .1 13.6.6 26.8 4.6 40 7.3 13.5 2.7 27.6 3.1 41.3 3.6 31.2 1.1 61.8 1.2 92.9-2 30.1-3.1 60.1-8.4 90.3-9.7 16.3-.7 38.6 2.1 54.5-5.2 5.3 3.4 14 .7 13-7.2-1.1-8.8-1.4-22.1 4.2-29.5 4.4-5.8.9-15.4-7.2-14.5z"/><path d="m372 398.5c-10.2 2.5-21.5 2.6-31.9 4.1-10.7 1.5-21.5 2.9-32.2 4.3-20.3 2.5-40.8 4.3-61.3 4.2-.1-1.7-1-3.4-2.6-4-6.3-2.3-12.7-1.9-19.3-2.8-8.1-1.1-16-1.5-24.2-1.7-15-.3-29.9-.1-44.5 2.8-6.9-1.4-13.8-2.8-20.8-3.7-.1 0-.1 0-.2 0-1.7-1.7-3.8-3-6.3-3.6-2.1-.5-4.9 1.1-5.1 3.4-.9 9.7 5.6 21.9 8.8 31 3.6 10.2 10.1 19.6 18.1 26.8 19.4 17.6 51.8 15.1 76 15.5 30.2.6 60.2-2.7 90.3-2.9 13.6-.1 47.2-5.5 39.6-26.9 9.2-10.3 15.6-23.1 24.5-33.6 5.6-6.5-1.3-14.7-8.9-12.9z"/></g><g fill="#f4c1b8"><path d="m417.2 145.3c-14.5 2.3-29 4.4-43.5 6.7-11.6 1.8-23.9 2.5-35.4 5.3-9.4-.4-18.8-.9-28.2-1.2-28.5-1-60.3-5.8-88.4 1.3-.7-.9-1.8-1.5-3.2-1.8-10.1-1.9-21.4.7-31.7 1.1-11.6.4-23.1.4-34.7-.1-5-.2-9.9-.6-14.9-1-3-.3-5.8-.7-8.4-1.1-8.6-1.3-17.4-1.2-26-2-8.3-.8-17-2.3-25.3-1.2-1.6.2-2.4 2.6-.6 3.3 2.5.9 5.1 1.7 7.7 2.4-.3 1.1.3 2.4 1.5 2.8 50.6 15.8 107.2 16.4 159.9 17.9 26.6.7 53.3.3 79.9-.6 11.8-.4 24.2-2.1 36-.8 11.5 1.3 8.9 7.7 6.8 16.9-2 8.7 10.2 12.2 14.3 4.9.2-.4.4-.8.6-1.2 2.4.9 5.2.8 7.4-.6 3.4-2.2 6.9-3.3 10.5-4.4.7.3 1.5.6 2.3.7v.2c-.2 6.5 9.4 7.7 12 2.4 6.2-12.8 8.7-29 9.1-43.2 0-3.8-4.2-7.3-7.7-6.7z"/><path d="m373.3 396.3c-10.1 2.8-19.9 5.1-30.4 5.9-2.9.2-5.7 2.2-7 4.8-1-.7-2.1-1.4-3.1-2-15.1-8.3-36.2-3.7-52.3-3.3-26.1.6-52.6 1.2-78.6.2-12.2-.5-24.2-2.3-36.3-3-10.3-.6-21.5.9-31.6-2-3.7-1.1-4.7 4.1-2 5.8 13.9 9.1 33.5 8.9 49.5 11.4 24.1 3.6 48.3 2.7 72.6 3.3 11.8.3 23.7.9 35.5.9h1.8c.1 0 .2 0 .3.1 6.1 1.3 12.1 3.4 17.6 6.4 5.2 2.8 8.1 7.7 8.6 13.5.1 1.1.1 2.1-.1 3.2-2.3 6-5.3 11.8-9.5 16.8-.6.7-1.1 1.2-1.8 1.7-.7.1-1.5.3-2.2.4-14.3 2.5-29 2.2-43.5 2-14.1-.2-27.9-.2-41.9 1.5-16.6 2.1-33.8 5.3-50.7 3.8-2.7-.2-3.5 3.4-.8 4.1 30.1 8.2 63.4 3.9 94.4 5.6 13.8.7 27.7 1.2 41.4-.3 1.5.1 2.9-.1 4.4-.5.2 0 .4-.1.7-.1 4.8-.7 11.8-2 18.2-4.4 15.3 14 52.3-54.8 56.5-64.6 3.3-6.7-2.7-13.1-9.7-11.2zm-20.8 21.4c.6-.1 1.2-.2 1.7-.3-.6.5-1.2 1-1.7 1.5 0-.4 0-.8 0-1.2z"/></g><path d="m424.3 196.3c-12.9 5.5-26.4 7.4-40 8.3-1.3-.3-2.6-.3-4.1.1-.2.1-.4.1-.6.2-17.6.9-35.5.7-52.6 5.1-.2-2.8-2.6-5.4-5.2-6.1-9.4-2.5-22.1 4-31.7 5.5-11.7 1.8-23.5 2.3-35.3 2.5-10.3-.4-20.5-.9-30.7-1.6-27-1.9-54-3.8-81-6.2-21.5-1.9-44.1-7.7-65.7-4.3-.9-.6-1.9-1.3-2.8-2-3.3-2.6-7.9.5-6.6 4.5.4 1.4 1.1 2.6 1.8 3.8-8.2 9.7 1.8 33.8 4.1 43.1 6.7 26.9 5.1 55.1 11.9 82.1 4.7 19 5.2 42.7 22.6 53.1-.7 3.4 1.4 6.9 5.4 6.7 10.2-.5 20.2 1.9 30.1 4.2h.2c.1 0 .2 0 .3.1 1.3.3 2.6.6 3.8.8 10.4 2.1 21 3.5 31.3 3.5 24.4 1.6 48.9 3.9 73.3 3 11.7-.5 23.4-1.4 35.2-2.5 6.6.6 13.3.9 19.9 1.2 26.3 1 50.8-4.2 75.4-12.2 3 4.1 9.9 5.7 13.4.9 2.4-3.3 4.3-7 5.9-10.9.2-.1.5-.2.7-.3 2.9-1.6 3.5-5.5 2.3-8.4 1.5-5.2 2.6-10.5 3.7-15.5 3.2-14.8 5.9-29.7 9-44.5 3.2-15.3 6.5-30.5 8.7-45.9 2-13.4 4.3-28.7.5-42.1 2.2-5 5.2-9.9 7-14.7 2.3-6.2-2.9-14.6-10.2-11.5z" fill="#ef9152"/><path d="m423.1 196.7c-8.3 4.1-17.5 4.6-26.3 7-.2-1-.5-2.1-.7-3.1-1-3.6-6.8-3.1-7.3.5-2 14.9-2.2 29.8-3.7 44.8-1.7 17.3-4.9 34.4-8.8 51.4-3.9 17.1-8.9 33.9-14.7 50.4-4.3 6.7-9 13.2-15.5 18.6-6.7 5.6-14.5 9.8-22.5 13.5-22.8 2.5-45.8 3.3-68.7 3.7-24.7.4-49.4-.1-74.1-.3-12.3-.1-24.5-.3-36.7 0-12.3.3-24.1 2.3-36.3 3.2-2.8.2-3.2 4.8-.3 5 12 .8 23.8 3 35.8 3.8 9.9.7 19.7 1.2 29.6 1.6.4 1.2 1.4 2.3 2.8 2.8 20.7 6.4 44.7 4.2 66 2.9 21.1-1.3 42.3-3.9 63.5-3.3 17.5.5 35 2.1 52.5 1 11.6-.7 34.9-2.6 40.3-14.9.1-.2.1-.4.2-.6 2.6-.9 4.8-3 5.2-6 4.5-32.1 23.8-66.4 17.7-99.2-.3-1.8-1.5-3.2-2.8-4 4.7-22.8 4.7-46.7 13.9-68.5 2.5-5.2-2.6-13.5-9.1-10.3z" fill="#dd673e"/><g><path d="m383.8 308.4c-15.6 2.7-31.7-4.8-33.8-17.1s8.8-23.9 26.1-27.5c15.5-3.2 32.8.6 36.3 17.2 3.6 17.2-13.1 24.7-28.6 27.4z" fill="#f48ca3"/><path d="m205.5 306.7c15.4 3.5 31.9-3.1 34.7-15.3s-7.5-24.4-24.6-28.8c-15.3-4-32.8-1.1-37.2 15.3-4.5 16.9 11.7 25.2 27.1 28.8z" fill="#f48ca3"/><g fill="#f34d65"><path d="m371.1 285.3c-.8-.2-1.8.2-1.9 1-.1.5-.3.9-.4 1.4-.2.6-.6 1.1-.8 1.7-.2.7.1 1.5.7 1.9.8.5 1.7.2 2.3-.5.8-1 1.4-2.7 1.2-4 0-.6-.3-1.2-1.1-1.5z"/><path d="m377.5 286.4c-.1.6-.2 1.2-.4 1.8-.2.7-.5 1.4-.1 2.1.3.5.7.6 1.2.5 1.9-.3 1.7-3.1 1.6-4.4-.1-1.4-2.2-1.5-2.3 0z"/><path d="m390.3 285.3c-.2-1.5-2.5-1.4-2.8-.1-.1.6-.3 1.2-.6 1.7-.4.8-.9 1.8-.3 2.7.2.4.6.7 1.1.7 1.2 0 1.8-1 2.2-2 .4-1.1.5-1.9.4-3z"/></g><g fill="#f34d65"><path d="m218.4 284.2c.8-.2 1.7.3 1.9 1.1.1.5.2 1 .4 1.4.2.6.5 1.1.7 1.7.2.7-.2 1.5-.8 1.9-.9.5-1.7.1-2.3-.7-.8-1.1-1.2-2.7-1-4 0-.6.4-1.2 1.1-1.4z"/><path d="m212 285c0 .6.1 1.2.3 1.8.2.7.4 1.5 0 2.1-.3.4-.8.6-1.2.5-1.9-.4-1.5-3.1-1.3-4.5.1-1.5 2.1-1.4 2.2.1z"/><path d="m199.3 283.2c.2-1.5 2.6-1.3 2.8.1.1.6.3 1.2.5 1.8.3.8.8 1.9.2 2.7-.3.4-.7.7-1.1.6-1.2-.1-1.8-1.1-2.1-2.1-.4-1.2-.5-2.1-.3-3.1z"/></g><g fill="#f2f5fe"><path d="m396.6 269.4c-1.3-.6-2.8-.5-3.6.8-.8 1.2-.3 2.8.8 3.6 0 0 .1.1.1.1v.1c0 .1.4 1.2.4 1.1.2.3.2.5.5.9.1.1.6.4.9.6.5.3 1.1.3 1.6.1.1 0 .2-.1.3-.1 1-.4 1.5-1.2 1.7-2.3.3-1.9-1-4.1-2.7-4.9zm-2.6 4.6c.2.2.1.2 0 0z"/><path d="m191.7 271.8c.1 1.1.6 1.9 1.5 2.4.1 0 .2.1.3.1.5.2 1 .2 1.6-.1.3-.2.9-.5 1-.6.3-.3.4-.5.6-.8 0 .1.5-1 .4-1.1v-.1s.1-.1.1-.1c1.2-.7 1.7-2.2 1-3.5s-2.2-1.6-3.5-1c-1.7.8-3.2 2.8-3 4.8zm5.4 0c-.2.2-.2.2 0 0z"/></g></g><path d="m391.3 199.2c-12.8.4-25.8 2.9-38.6 4-13 1.1-26 2.4-39 3.7-27.4 2.8-55.6-.4-83.2-.3-27.3.2-54.3.4-81.5-2.3-22.2-2.2-46.8-8-69.5-5.5-.5-1.1-1-2.2-1.6-3.3-1.5-2.7-5.8-2.2-7.1.5-.8 1.7-1.4 3.6-1.8 5.5-.6.8-.7 1.8-.5 2.9-1.9 12.9 2.5 28.3 4.7 40.1 3.4 17.8 7.7 35.3 10.9 53.1 3 16.2 7.6 31.4 13.1 47 2.8 7.9 5.4 15.9 7.4 24.1 1.8 7 1.8 14.2 5.6 20.5 2.1 3.4 7 2.5 8.8-.6 6.7-12-1-30.2-5-42.2-5.5-16.6-11.6-32.6-14.6-49.9-3-17.2-7.1-34.2-10.8-51.2-1.1-5.3-2.1-10.6-3.1-16 1.1-2.4 1.2-5.1 1.8-7.6.6-2.6 1.8-5.1 3.5-7.1.8-.9 1.7-1.3 2.8-1.5 5.7.6 11.5 1.1 17.1 1.8 13 1.6 26.1 3 39.2 4.2 27.2 2.7 54.2 2.3 81.5 2.2 28-.2 55-3.6 82.8-6 13-1.1 26-2.6 39.1-3.3 12.9-.6 27.3-.5 39.5-5.3 4.2-1.6 2.9-7.7-1.5-7.5z" fill="#f9c26b"/><path d="m462.7 117.3c-6.4-10.8-9.8-23.1-8.1-35.6.9-6.9-6.4-12.5-12.6-8.3-10.4 7-24.5 5.8-36.5 7.2-16.1 1.8-32.1 3.8-48.1 5.6-32.8 3.5-65.5 4.1-98.4 3-33.2-1.1-66.3-1.6-99.5-1.2-31.8.4-63.4-3.9-95.1-3.4 0-.2 0-.4 0-.6-.4-3.1-4.1-3.6-5.6-1.1-2.9 4.8-5 11-3.3 16.6-2.1 7.2-3 15-4.7 22.3-2.4 1.3-3.6 3.5-3.6 5.8h-.1c-3.6-.9-5 4.2-2 5.9 13.9 7.8 26.2 11.5 42.1 13.2 15.7 1.7 31.5 1.7 47.2 2.9 17.8 1.4 35.7 1.8 53.5 2 6.1.1 12.2-.1 18.3-.2 15.9 1.4 31.8 2.8 47.7 3.8 35.5 2.1 69.9-1 105.1-5.6 31-4 66.2-5.9 95-19.3 5.7 1.2 12.9-5.9 8.7-13z" fill="#a54b28"/><path d="m435.1 58.3c-.4-.4-.7-.9-1-1.3.3-.4.6-.7.9-1.1 6.8-10.5-9.3-20.8-17-24.3-1.9-.9-3.9-1.6-6-2.3-1.1-1.4-2.8-2.5-5-3.1-16.2-3.8-33-5.5-49.9-6.4-11.4-2-22.8-4-34.4-4.8-17.6-1.1-35.1-.1-52.6 1.4-18.9-1.1-37.8-2.3-56.8-2-32.2.4-65.8.5-97.4 6.5-7.2 1.4-14.1 3.6-19.3 8.1-1.1.1-2.2.5-3.1 1.4-5.9 5.9-10.5 12.3-13 20.4-1.2 3.9-1.3 8.1-1.7 12.2-3.7 2.1-5.8 5.5-8 9.4-1.4 2.5-.5 5.7 1.5 7.6 12.4 11.7 37.5 8.5 53.1 9.8 24.7 1.9 49.3 2 74 2.2 25.9.2 51.9.5 77.8.1 12.3-.2 24.7-.5 37-1.1 11.9-.5 26 .5 37.1-4.2 2.7-1.2 4.2-3.3 4.6-5.7h7.3c22.4-.2 45.3-5.3 67.4-8.9 7-1.2 9.3-8.7 4.5-13.9z" fill="#a54b28"/><g fill="#cc814e"><path d="m405.8 19c-5-1.6-10.5-2.2-15.7-1.4-13.4-4.4-27.1-4-41.2-3.3-19 .9-37.5-1.8-56.4-3.5-3.8-.3-7.7-.6-11.5-.7-19.5-2.7-40.5-1.3-59.2-1.1-26.3.3-52.8 1.6-78.9 5.2-34.2 4.8-65.7 22.4-69.5 60-.4 4.4 4.4 7.6 7.7 5.8 4.8 3.8 12.9 4.3 18.3 3.6 3.7-.5 5.9-2.7 7-6.2 2-6.4 3.1-12.9 4.4-19.5.6-3 1.4-5.7 2.5-8.2 18.9-.3 38 3.2 56.8 2.8 19.1-.5 42.5-.5 60.6-8.5 3.9-.2 7.8-.4 11.7-.5 45.1-1.4 91.1 6.8 135.3-4.1 10.7.9 23.1-3.6 30.9-8.2 5.4-3.2 2.2-10.6-2.8-12.2zm-257.1 9.1c-.2 0-.5 0-.7-.1.3 0 .5-.1.8-.1-.1.1-.1.2-.1.2zm-29.6 11.8c.4-.6.8-1.1 1.3-1.7.5-.7.9-1.5 1-2.3 2.4 1.3 4.9 2.5 7.4 3.5-3.2 0-6.5.2-9.7.5z"/><path d="m326.7 89.8c-20.3-4.3-42.7-.5-63.4-.6-22.1-.1-44.2-1.2-66.3-1.4-22-.2-44-.4-66.1-.5-18.3-.1-37.8-1.4-56 2-.9-2.3-3.9-3.4-6.2-1.9-1.1-2.5-4.8-2.2-6.2-.1-2.1-.5-4.6.8-5.3 3.3-1.1 3.8-1.3 7.9-1.9 11.8-.5 3.2-1.3 6.5-1.5 9.8-1.9 5.4-3.6 11-3.3 16.7.1 1.8.9 3 1.9 3.7-.4 4 3.9 6.6 7.6 6 1.1 2.5 4.8 3 6.6.9 4.1-5 4.5-11.8 6.7-17.8 1.9-5.1 4.6-9.7 8.3-13.6 2.3-2.5 5.4-4.4 8.9-5.9 13.8.6 27.8-.2 41.3-.2 22 .1 44 .2 66.1.3s44.1-1.2 66.1-2.4c20.4-1 43.4.7 62.9-6.3 1.9-.6 1.7-3.4-.2-3.8zm-254 12.4c.2-.6.3-1.1.5-1.7.4.1.7.1 1.1.2-.6.5-1.1 1-1.6 1.5z"/></g><g><path d="m56.3 82.9c11 5.4 23.8 7.2 35.8 8.6 15.2 1.8 30.4 2.9 45.7 3.6 35 1.7 70.1 1.3 105.2 0 61.2-2.2 123-6.5 183.4-16.4 7.7-1.3 15.5-2.5 22.9-4.8 5.9-1.9 3.5-10.5-2.6-9.3-51.4 10.6-104.1 14.8-156.5 18.1-67.5 4.2-135.7 6-203.1-1.5-9.9-1.1-19.6-3-29.6-3.1-2.4 0-3.5 3.7-1.2 4.8z" fill="#851919"/></g><g><path d="m54 80.9c-4.3 6.8-5.8 15.3-7.2 23.1-1.8 9.7-3.5 19.4-5.6 29-1.1 5.1 6.2 7.1 7.8 2.2 2.8-8.4 3.8-17.4 5-26.2s3.6-17.3 4.8-26c.4-2.9-3.1-4.8-4.8-2.1z" fill="#851919"/></g><g><path d="m447.8 70c-3.3 19.2 7.7 40.3 13.2 58.2 1.7 5.7 10.7 3.3 8.9-2.5-2.8-9.3-5.9-18.5-8.9-27.8-3-9.4-4.8-19.4-8.7-28.5-.8-2-4.2-1.5-4.5.6z" fill="#851919"/></g><g><path d="m41.5 137c14.6 11.4 37.5 13.4 55.3 15.9 31 4.4 62.4 6.2 93.7 7.1 74.2 2.1 149.4-1.4 222.5-14.3 18.5-3.3 37.5-6.8 55.3-13 5.5-1.9 3.3-10.2-2.4-8.8-33.6 8.3-66.9 15.3-101.3 19.4-37.9 4.5-76 6.8-114.1 7.6-35.6.7-71.2.1-106.7-2.4-26.2-1.8-52.8-4.5-78.4-10.6-7-1.7-13.9-3.7-20.7-5.9-3-1-5.6 3.1-3.2 5z" fill="#851919"/></g><g><path d="m70.1 83.1c12.6-18 9.5-46.7 32.6-56.4 3.1-1.3 4.3-6.7 0-7.5-13.3-2.4-22.2 12.5-26.7 22.7-5.4 12.3-10 26.7-9.7 40.2 0 2.1 2.6 2.6 3.8 1z" fill="#851919"/></g><g><path d="m91.4 28c4.7 1.8 9.4.4 14.3-.3 5.8-.9 11.7-1.8 17.5-2.7 14.5-2.2 29.1-3.6 43.7-4.7 33.8-2.7 67.7-3.7 101.6-3.5 31.8.1 63.7 1.2 95.3 4.5 19 2 39.3 4.2 56.9 12.4 4.7 2.2 10.5-3.9 5.9-7.7-6-4.9-13.8-6.9-21.1-8.7-11.1-2.7-22.4-4.3-33.7-5.7-30.8-3.8-62-4.9-93-5.3-34.1-.4-68.3.4-102.4 2.8-26.7 1.9-55.3 3.2-80.9 11.6-2.3.8-3.6 1.9-5.1 3.8-1.1 1.1-.6 2.8 1 3.5z" fill="#851919"/></g><g><path d="m418.6 29.4c3.7 6.1 7.5 11.4 10 18.2 2.5 6.6 2.8 13.3 4.3 20.1.9 4.1 7.9 4.4 8.5 0 1.2-8-1.9-17.1-4.8-24.5-2.7-6.8-7.2-16-15-17.9-2.2-.4-4.3 2-3 4.1z" fill="#851919"/></g><g><path d="m107.6 38.5c11.9 7.1 27.1 7.8 40.6 9 26.1 2.4 52.6 2.1 78.8 2 30.1-.2 60.3-.9 90.3-2.2 14.8-.7 29.7-1.3 44.5-2.6 11.8-1.1 26.3-.4 37.1-5.6 2.1-1 1.5-4.4-.6-4.8-11.4-2.5-24.9.8-36.5 1.6-14.1.9-28.1 2.2-42.2 3.1-30.1 1.9-60.2 3.1-90.4 3.4-25.4.3-50.8.2-76.1-1.1-9.1-.5-18.3-.8-27.3-1.7-6-.6-12.1 0-17.9-1.7-.4-.1-.7.4-.3.6z" fill="#851919"/></g><g><path d="m62.8 194.5c11.6 6.1 25.4 8.2 38.2 10.3 15.3 2.5 30.7 4.2 46.1 5.6 33.1 2.9 66.4 3.7 99.6 3.3 32.8-.4 65.7-2.1 98.4-4.9 28-2.4 57.2-4.4 84.7-10.7 5.2-1.2 4.2-10-1.3-9.4-27.1 3-53.9 7.5-81 9.9-32.6 2.9-65.4 4.6-98.2 5.1-32.4.5-64.9-.2-97.2-2.7-15.4-1.2-30.8-2.9-46.1-5.2-13.8-2.1-27.8-5.8-41.8-6-2.6-.2-3.7 3.4-1.4 4.7z" fill="#851919"/></g><g><path d="m102.3 390.6c9.3 6.1 21.3 8.4 32 10.6 12.1 2.5 24.3 4.2 36.6 5.7 27 3.1 54.3 4 81.4 3.7 26.8-.3 53.6-2 80.2-4.7 22.2-2.3 45.4-4.3 67.1-9.8 4.6-1.2 3.8-9.1-1.2-8.5-22 2.8-43.8 7-66 9.3-25.8 2.7-51.7 4.2-77.6 4.7-26.4.5-52.8-.4-79.1-3-13.1-1.3-26.2-3.2-39.1-5.8-10.9-2.2-22-5.9-33.2-6.4-2.3-.2-2.9 3-1.1 4.2z" fill="#851919"/></g><g><path d="m62.8 192.8c-.7 12.6 1.7 25.8 3.5 38.2 2.7 18.7 6 37.2 9.5 55.7 6.7 35.4 13.7 71.8 26.9 105.4 1.8 4.7 9.4 2.6 7.6-2.1-13-32.9-19.8-68.6-26.5-103.2-6.1-31.4-9.2-63.5-15.6-94.8-.7-3-5.2-2.1-5.4.8z" fill="#851919"/></g><g><path d="m429.6 194.5c-3.2 13.3-2.5 28-4.1 41.6-2.4 20.7-5.4 41.2-8.9 61.8-3.2 19.1-6.8 38.2-10.9 57.1-2.8 12.9-7.1 25.2-10.5 37.9-1.1 4 4.4 6.1 6.5 2.7 6.5-10.3 8.3-25.3 11-37 4.4-19.5 8.2-39 11.6-58.7 3.4-20 6.4-40.1 8.7-60.3 1.6-13.9 5.7-31.6 1.6-45.2-.7-2.2-4.4-2.4-5 .1z" fill="#851919"/></g><g><path d="m71.1 147c.3 8.1 1.1 16.1 1.8 24.2.7 7 .6 14.9 3 21.5 1.2 3.4 5.7 2.7 6.1-.8.8-7-1.2-14.7-2.3-21.6-1.3-8.1-2.7-15.9-5.1-23.8-.5-2-3.6-1.7-3.5.5z" fill="#851919"/></g><g><path d="m424.7 142.5c-2.2 7.8-2.3 16.1-3.2 24.1-1 9.1-3.1 18.1-3.8 27.2-.3 4.1 6 4.8 7 1 2.3-8.3 3.1-17.2 4-25.7 1-8.7 2-17.9.4-26.6-.3-2.4-3.8-2.1-4.4 0z" fill="#851919"/></g><g><path d="m118.8 396.5c4 27.3 8.9 66 38.8 76.9 10.8 4 22.7 5.2 34 6.5 15.7 1.8 31.6 2.5 47.4 2.9 29.1.7 59 .5 87.8-4.4 28.3-4.8 43.9-33.2 54.7-57.3 3.7-8.4 6.8-17.3 8.1-26.4.8-5.8-8-8.4-8.9-2.5-2.4 15.3-9.5 30.3-16.9 43.8-6.7 12.2-15.7 27.3-30 31.4-24.9 7.2-53.2 6.6-78.8 6.7-29 .1-59.2-.2-87.6-6.8-15-3.5-24.3-12.5-30-26.9-5.9-14.9-6.5-31.8-14.5-45.7-1.3-2.5-4.5-.7-4.1 1.8z" fill="#851919"/></g></g><path d="m83.4 333.4c-.6 3.9.3 8 3.1 12-.4 16.2 3.5 33 10.8 47 9.9 18.9 27.8 27.1 47.7 31.8 21.3 5 41-8.1 55.7-22.4 1.8-1.7 3.3-3.5 4.6-5.4.5.6 1.1 1.2 1.8 1.7 7.6 4.8 17 1.6 22.9-4.3 4.9-4.9 10.8-14.4 9.7-21.5-.4-2.8-3.8-4.1-6.3-3.6-5.3 1.3-7.9 7.3-11 11.3-1.3 1.7-2.8 3.6-4.7 4.7-2.1 1.3-4.8.2-7.1.1.8-2.8 1.4-5.7 1.8-8.7 1-7.4.8-15.8-.5-23.8 2.8-5.2 5-10.5 5.9-15.8.9 1.2 2.1 2.4 3.1 3.3 2.4 2.4 4.9 5.5 8.3 6.3 4.9 1.2 11.2-3.5 9-9-1.5-3.8-4.5-6-7.5-8.5-1.6-1.4-3.4-3.2-5.5-3.7-3.2-.6-5.8 0-7.6 2.1-1-4.7-3.6-9.2-8.4-13.4-12.6-10.9-31.5-12.5-47.4-13-17.7-.5-36.6 1.1-53.2 7.3-6 2.3-13.2 6.8-18.4 12.4-4.1 1.9-7.4 4.5-9.3 9.1-.5 1.8.9 3.6 2.5 4z" fill="#f2c020"/><g fill="#ffd45a"><path d="m183.7 305.1c-6.1-4.1-17-3.6-24.1-4-11.2-.6-22.4-.1-33.5 1.5-14.2 2-44.4 10.4-43 29.9.2 2.6 3.4 3.6 4.9 1.3 4.9-7.5 7.7-13 16.1-17.5 8.6-4.6 18.9-6.4 28.5-7.5 9.5-1.1 19.2-1.1 28.8-.5 7 .4 14.8 3 21.7 2 2.7-.2 2.5-4 .6-5.2z"/><path d="m142.7 390.1c-3.4-15.1-.5-32.7-6.4-47.1-1-2.4-4.6-2.2-4.7.6-.1 7.8 1.3 15.8 1.8 23.6.5 8.2 1.3 16.2 2.8 24.3-.5-1.6-1-3.2-1.6-4.8-2.1-6.6-4.4-13.2-6.3-19.9-2.3-8.1-1.9-17.3-5-25.1-1-2.4-4.8-3.8-6.2-.8-.2.4-.4.9-.6 1.3 0-.2 0-.5-.1-.7-.2-3.3-3.9-4.8-6.3-2.6-11.6 10.5-2.2 31.2 1.8 43.3 5.2 15.6 9.1 37 25.2 45.5 3.3 1.7 6.5.6 8.3-1.6.5.1 1 .3 1.4.4 1.3.2 2.4.1 3.3-.3 1.2 1.3 2.5 2.3 4 3.1.9.5 2.2-.1 2.2-1.2-.2-5.9-4.1-10.8-6.6-16-3.1-7-5.3-14.5-7-22z"/></g><g fill="#df8b12"><path d="m102.9 327.6c6.5-5.6 18.1-7 26.4-7.8 9.7-.9 19.5-1.4 29.2-1.8 11.7-.6 20.9 2.3 30.8 8.2 4 2.3 8.1 4.9 12.5 6.3-.9 2.6-1.5 5.2-1.9 7.8-.8-2.1-4-3.1-5.6-1.2-.5-.6-1.2-.9-2-.9-1.3.1-2.4.5-3.2 1.3-.1-.2-.2-.4-.3-.6-1.3-2.1-4.8-1.9-5.5.7v.2c-.4.3-.7.7-.9 1.1-4.4 13.8-1.5 28.8-5.6 42.8-1.3 4.3-3.3 8.7-5.4 12.8-7 7.4-15.5 12-24.4 17.1-5.6 1.1-11.3 1.6-16.8 1.9-3.5.2-4.3 5.1-.8 6.1 2.2.7 4.4 1.2 6.5 1.6.2 2.7 2.8 5.1 6.2 4.6 5.7-.9 11.2-2.7 16.3-5.1 1 .6 2.2.8 3.6.5 15.8-3.7 29.5-13.3 38.3-26.9 5.3-8.3 8.8-18.4 11.1-27.9 1.4-6 1.4-12.4 2-18.6.2-.2.5-.5.7-.8 2.5-3.5 2.9-7.9 3.2-12.3.1.8.3 1.5.7 2.3 1.2 2 4.1 3.6 6.4 2.6.7-.3 1.4-.4 2-.8.2-.2.5-.4.7-.6s.1-.1.1-.1-.1.1-.1.1c.3-.1.5-.1.8-.2 1-.3 2-.7 2.7-1.5-.2.2-.3.3-.5.5 0 0 .1 0 .1-.1 2.3-1.2 3.3-4.1 2.7-6.5-.4-1.4-1.4-2.7-2.7-3.5-1.5-.9-2.9-.8-4.5-.6-2.9.4-6.5 2.2-7.9 4.9-.3.6-.5 1.3-.6 1.9.1-1.2.1-2.3.3-3.5.2-1.7-.3-3.1-1.2-4.3-.1-1.7-1-3.4-2.5-4.1-4.5-2.2-9.3-3.4-13.7-5.7-4.7-2.5-9.1-5.4-14-7.4-11.5-4.9-23.7-4.6-35.9-3.2-18.7 2.1-39.5.8-52 17.1-2.4 2.8 2.2 5.7 4.7 3.6zm124.5 12.1c-.1 0-.1 0 0 0z"/><path d="m230 338.8c-.4.2-.4.4 0 0z"/><path d="m227 340c-.4.3-.7.6 0 0z"/><path d="m227.6 374.5c-.4.6-.7 1.2-.8 1.9-.8.3-1.8.5-2.5 1-1.5 1.1-2.3 2.6-2.3 4.2-.1.1-.2.2-.4.3 0 0 0 0-.1.1-.6.4-1.2.8-1.8 1.2-1.5 1.1-1.8 1.4-.9.7-.3.2-.6.5-.9.7-.9.6-1.8 1.1-2.7 1.6-1.1-.3-2.3-.4-3.6 0-3.5 1-5.8 4.8-4.7 8.3 2.2 7.5 10.2 6.3 15.4 3.1 4.1-2.5 8.3-6.2 9.6-11 .6-.2 1.1-.4 1.6-.6.4-.2.8-.4 1.2-.6.2-.1 2.9-2.1.6-.5.6-.4 1.1-.8 1.6-1.3 1-.8 1.6-2.3 1.9-3.5.5-2 .2-3.7-.7-5.6-2.1-4.2-8.4-3.6-10.5 0zm-9.2 14.2c.5.6.9 1.3 1.3 2.2-.3-.8-.7-1.6-1.3-2.2z"/><path d="m98.9 391.8c.4 2.6 2.1 4.5 6.4 5.1 2.3.3 5-1.5 6.1-3.5 4.1-7.3 5-15.8 4.8-24.1-.1-7.5-1.1-18.6-8.3-22.8-.5-.3-1-.5-1.6-.6-.3-.2-.6-.4-.9-.6-2.1-1.4-5 0-5.6 2.3-1.5 5.3.4 11.1.1 16.6-.5 7-4.7 11.8-7.3 17.9-1.9 4.3 1.6 10.8 6.3 9.7z"/></g><path d="m195.5 324.4c-12.8-8.4-31.9-8.1-46.6-7-6.5.5-13.1 1.9-19.6 2.9-3.1.5-6.1.9-9.2 1.2-2.3.2-8.6-.4-2.7.8-2.9-.6-5.9.7-7.4 3.1-1.1.2-2.3.5-3.3.9-4.2 1.4-4.8 8 0 9.1 13.5 3 27 3.7 40.7 4.6 15.3.9 31.4 2.9 46.3-1.9 6.4-1.9 7.3-10.1 1.8-13.7z" fill="#b55e3c"/><path d="m280.2 377.8c2.8 0 6.3-2.1 6.7-5.1 1.7-12.3-1.9-30.5-14-37-3-1.6-5.9-2.5-8.7-2.9-.7-1-1.8-1.7-3.1-1.8-10.5-.6-25.1 3.6-31.9 12.1-5.9 7.5-7.1 17.5-.4 24.8 11.4 12.4 36.2 10 51.4 9.9z" fill="#ef9152"/><path d="m93.3 342.2c.3-3.3-2-6.1-5.1-7.2-13.7-5.1-30.9-1.5-35.2 14-1.5 5.3 1.4 12 3.2 16.9 2.4 6.1 5.3 12 9.6 16.9 9.5 10.9 22.3-2.6 28.1-10.4 3.4-4.5 7.3-9.9 7.7-15.7.5-5.7-3.7-10.9-8.3-14.5z" fill="#ef9152"/><path d="m324.8 454.3c-1.7 2.1-3.7 4.1-5.8 5.9-.6-1.1-1.5-2.1-2.7-2.9-15.9-10-44.1-10-61.1-2.9-14.1 5.9-39.4 26.8-22 42.6 14.7 13.2 39 3.4 54.2-3.2 15.9-6.9 37.1-17.1 45.4-33.4 2.6-4.8-4.2-10.9-8-6.1z" fill="#ffeee6"/><path d="m230.8 354c5.8-5.4 11.9-9.7 19.6-12 6.3-1.9 14.7-.7 20-4.5 2-1.4 2.8-5.2 0-6.4-7.7-3.2-19 .9-26.4 3.9-8.2 3.3-14.4 8.4-16.5 17.1-.5 1.9 1.9 3.2 3.3 1.9z" fill="#f9c26b"/><path d="m70.2 338.4c-11.1-.3-22.8 6.6-18.2 19 .9 2.5 4.5 2.8 5.3 0 2.9-9.6 10.5-9.4 19.3-8 6.4 1.1 16.8 6.2 23.2 4.2 2.2-.7 4.1-3.7 2.4-5.9-5.9-7.6-23.2-9-32-9.3z" fill="#f9c26b"/><path d="m268 448.9c-3.7.6-6.1 1.5-7.8 4.3-2.6.7-4.9 2.4-7.5 3.8-4.4 2.4-8.9 4.8-13.1 7.5-8.1 5.2-14.3 12.8-15 22.6-.2 3.1 4.2 4.2 5.7 1.8.9 0 1.7-.4 2.2-1.3 9.2-15.1 29.8-16.6 40.4-30.2 3.2-4.1.3-9.3-4.9-8.5z" fill="#fff8f5"/><path d="m327.7 451.4c-.2.2-.4.4-.6.6-6.6-.2-12.3 2.6-16 7.2-11.6 5.7-21.9 14.4-33.5 20.3-13.1 6.7-27.6 11.2-42.4 10.2-5.5-.4-6.7 8.4-1.3 9.6 19 4 41.6-.8 59.8-6 15.9-4.4 39.8-13.7 41.3-32.9.3-.3.5-.6.8-.8 5-5.5-3.1-13.7-8.1-8.2z" fill="#f4c1b8"/><path d="m248.1 371.7c4.2.5 8.4.7 12.6.7 4.1 3.1 11 4.2 15 4.6 8.4 1 15.5-5.1 14.3-13.7-.6-4.5-3.8-7.2-8.4-6.4-18 3.1-37.6 6.8-54.2-2.8-2.2-1.3-5 .8-4.3 3.3 3.2 10.4 15.8 13.1 25 14.3z" fill="#dd673e"/><path d="m96.8 355.9c-5 6.8-10 12.2-18.9 12.4-7.6.2-14.1-5-21.5-5.4-2.5-.1-4.2 2.5-3.6 4.8 1.4 5.8 6.3 9.5 12 11.5-.6 3.6 3.2 7 6.7 7.9 2.2.5 4.6.4 6.7-.4 3.3-1.2 5.1-3.3 6.4-6.5 10.4-2.9 18.1-11.5 18.5-22.7-.1-3.5-4.5-4.1-6.3-1.6z" fill="#dd673e"/><g><g><path d="m334.3 466.4c-6.7.5-13 5.3-19 8.1-8.7 4-17.3 8-26.2 11.6-14.2 5.8-28.4 10.4-44 10.2-6.7-.1-17.1-2.2-15.7-11 2.3-14.7 20.9-19.7 30-29 2.5-2.5 0-6.9-3.5-5.9-13.9 3.7-32.2 16.9-35.6 31.6-2.4 10.1 3.3 18.2 12.6 21.7 14.9 5.6 34.3.1 48.6-5.1 9.8-3.6 19.5-7.8 28.9-12.3 8.1-3.8 21.1-8.4 26-16.3.8-1.5-.3-3.7-2.1-3.6z" fill="#851919"/></g><g><g><g><path d="m264.1 328.6c-13-4-31.9-.5-40.1 11.3-6.2 8.9-9.6 18.8-2.2 28 6.3 8 19.2 10.3 28.6 11.5 8.9 1.2 22.5 3.5 30.8-.8 3.2-1.7 2.4-6.8-1-7.7-6.4-1.6-13.9-.1-20.5-.5-8.5-.4-17.5-1.6-25.2-5.3-8.1-3.8-8.5-9.8-4.4-17.2 6.7-12 21.9-13.3 34.1-15.3 2.1-.3 1.7-3.4-.1-4z" fill="#851919"/></g><g><g><path d="m60.5 339.2c1.1.1 2-.3 2.9-.9 1.6-1.1 2.4-2.8 1.9-4.7-.6-2-3-3.7-5.1-2.9-.3.1-.5.2-.8.3-2.1.8-3.6 2.7-2.9 5.1.6 2 3 3.7 5.1 2.9.3-.1.5-.2.8-.3-1.1-2.5-2.1-5.1-3.2-7.6-.2.1-.3.2-.5.3.7-.2 1.4-.4 2.1-.6-.1 0-.2 0-.3 0-2.3-.1-4.2 2-4.2 4.2 0 2.4 1.9 4.1 4.2 4.2z" fill="#851919"/></g><g><path d="m59.7 331.1c-13.4 4.4-14.2 20.5-12.1 32.2 2.4 13 11.2 27 25.5 28.1 17.4 1.3 37.2-22.1 34.1-38.7-3.9-20.6-30.2-26-47.5-21.6-5.2 1.3-3 9.4 2.2 8 12.5-3.2 35.7-.2 37.3 16.2 1.2 12-15.4 30.1-28.2 27.3-9.2-2-13.6-13.6-15.3-21.6-1.4-6.6-1.9-19.3 6.3-21.9 5-1.7 2.8-9.7-2.3-8z" fill="#851919"/></g></g><g><path d="m81 334.7c.9-7.8 10.6-13.7 16.8-17.2 10.1-5.7 21.8-8.7 33.1-10.8 22.4-4.2 50.5-5.1 70.8 7 9.2 5.5 12.8 13.9 12.5 24.3-.5 17.7-4 35.8-12.3 51.6-11.6 22.2-34.6 36.5-59.9 31.7-22.7-4.3-37.3-21.3-48.7-40.1-2.4-4-9.7-1.3-7.8 3.3 9.5 22.9 30.8 41.4 55.3 46 23.5 4.3 46.4-5.8 61-24.3 9.2-11.6 14.6-25.6 17.8-39.9 3-13.1 6.2-30.1 1.3-43.1-7.6-20.1-32.6-25.7-51.6-27.1-21-1.6-43.2 1.5-63 8.9-13.4 5-29.7 13.3-29.7 29.7.1 2.8 4.1 2.6 4.4 0z" fill="#851919"/></g><g><g><path d="m95.9 326c-11.8 14.3 22.3 16.9 28.9 17.4 22.4 1.9 46.2 1.8 68.4-2.5 4.3-.8 13.2-2.4 14-8 1.2-8.7-11.8-14.1-18.2-16.3-13.2-4.6-28.2-5.2-42.1-4.8-13.4.4-27.5 2.1-40.1 7.2-3.9 1.7-7.8 3.8-10.9 7-3.6 3.7 2.1 9.4 5.7 5.7 6.2-6.4 16.7-8.2 25-9.8 12.7-2.3 25.9-2.6 38.8-1.6 10.2.8 21.3 2.5 30.1 8.1 1.5 1 2.8 2.3 3.8 3.7.3.5.1-1.3.7-1.7-1.9 1.4-4.7 1.9-7 2.4-17.8 4.2-37.3 3.9-55.5 3.3-8.7-.3-17.4-.8-26-2.4-2.7-.5-5.6-1.1-8.1-2.2-2.7-1.2-.9-1-1.8.1 3.3-3.9-2.4-9.6-5.7-5.6z" fill="#851919"/></g></g><g><path d="m216.7 327.5c6.1 2 15.1-1.6 18.8 5.6 2.1 4 7.7 1.1 6.9-2.9-1.1-5.7-5.6-8.9-11.1-10-5.1-1-12.1-1.1-15.8 3.1-1.2 1.5-.7 3.6 1.2 4.2z" fill="#851919"/></g><g><path d="m202.6 402.7c6.8 5.5 19.7.8 26.3-3 8.5-4.8 16.6-15.9 15.3-26-.4-3.1-4.9-5.3-6.6-1.8-3.9 7.9-5.1 15.1-13.1 20.3-3.4 2.2-7.4 3.4-11.3 4.2-3.5.7-7.1.1-10.1 2.1-1.3.8-1.9 3.1-.5 4.2z" fill="#851919"/></g><g><path d="m211 386.5c4.1 2.7 9.9-1.3 12.9-3.8 3.6-3 7.8-9.1 5.4-13.9-1.2-2.4-5.1-2.4-6.3 0-.7 1.4-.8 3-1.4 4.5-.5 1.4-1.4 2.6-2.3 3.7-1.1 1.2-2.3 2.2-3.7 3.1-1.4.8-3.1.9-4.5 1.8-1.9 1-1.8 3.5-.1 4.6z" fill="#851919"/></g></g><g><path d="m276.2 282.1c-6.7 13.2 3 25.2 16.4 26.9 14.6 1.8 21.3-12.4 20.4-25.2-.3-5.1-8-6.7-9.3-1.3-1.3 5.6-.1 16.7-8.2 17.2-3.7.2-9-1.2-11.3-4.2-2.4-3.2-1.3-7.8-1.4-11.5.1-3.5-4.9-5.2-6.6-1.9z" fill="#851919"/></g><g><path d="m327.1 254c.4-5.2 2.2-10.7 5.9-14.4 2.6-2.6 8.7-4.1 12-2.2 2 1.2 1.9 6.2 1.9 8.1.1 4.5-1.2 9.2.8 13.3 1.6 3.4 6.3 2.7 8.1 0 3-4.7 2-13.9 1.1-19.2-1.1-6.1-4.3-11-10.4-12.9-7-2.2-15.4 1.1-20.6 5.7-6.4 5.6-7.5 14.7-6 22.5.9 4.3 6.9 3 7.2-.9z" fill="#851919"/></g><g><path d="m276 258.8c6.7-12.7-7.2-32.6-21.6-28.6-12.6 3.6-15.6 22.9-13 33.6 1.6 6.8 12.2 3.9 10.5-2.9-1.6-6.4-.1-15.4 4.8-20 2.5-2.3 6 .5 7.7 2.4 3.8 4.1 4.6 9.7 6.3 14.8.8 2.2 4.1 3 5.3.7z" fill="#851919"/></g></g></g></g></svg>