<svg id="Capa_1" enable-background="new 0 0 512 512" height="512" viewBox="0 0 512 512" width="512" xmlns="http://www.w3.org/2000/svg"><g><path d="m221.942 185.305 63.075 110.383-63.075 84.334-92.608-46.758-19.518-145.966c2.219-1.282 4.773-1.992 7.426-1.992h104.7z" fill="#ffe14d"/><path d="m221.942 380.022-74.244 124.397c-6.065 10.168-20.81 10.089-26.776-.128l-93.801-160.642c-2.801-4.803-2.831-10.731-.069-15.553l77.351-135.335c1.312-2.308 3.205-4.172 5.414-5.464z" fill="#ffc34d"/><path d="m391.24 382.764-70.319 121.132c-5.996 10.316-20.889 10.326-26.895.02l-72.084-123.894v-194.717h57.143l66.926 23.848z" fill="#ffc34d"/><path d="m391.24.352 30.065 63.494-30.065 44.028v274.89l-112.155-197.459 102.549-177.902c2.19-3.797 5.74-6.193 9.606-7.051z" fill="#ff884d"/><path d="m471.421 107.874h-80.181v-107.522c4.694-1.036 9.862.197 13.64 3.955l78.14 77.658c8.945 10.02 1.834 25.909-11.599 25.909z" fill="#ff6a4d"/></g></svg>