<svg id="Layer_1" height="512" viewBox="0 0 24 24" width="512" xmlns="http://www.w3.org/2000/svg" data-name="Layer 1"><path d="m10.75 4v4a2.391 2.391 0 0 1 -.09.66 2.736 2.736 0 0 1 -2.66 2.09h-4a2.748 2.748 0 0 1 -2.75-2.75v-4a2.736 2.736 0 0 1 2.09-2.66 2.391 2.391 0 0 1 .66-.09h4a2.748 2.748 0 0 1 2.75 2.75z" fill="#64c1e2"/><path d="m22.75 4v4a2.391 2.391 0 0 1 -.09.66 2.736 2.736 0 0 1 -2.66 2.09h-4a2.748 2.748 0 0 1 -2.75-2.75v-4a2.736 2.736 0 0 1 2.09-2.66 2.391 2.391 0 0 1 .66-.09h4a2.748 2.748 0 0 1 2.75 2.75z" fill="#b273bf"/><path d="m10.75 16v4a2.391 2.391 0 0 1 -.09.66 2.736 2.736 0 0 1 -2.66 2.09h-4a2.748 2.748 0 0 1 -2.75-2.75v-4a2.736 2.736 0 0 1 2.09-2.66 2.391 2.391 0 0 1 .66-.09h4a2.748 2.748 0 0 1 2.75 2.75z" fill="#64c1e2"/><path d="m22.75 16v4a2.391 2.391 0 0 1 -.09.66 2.736 2.736 0 0 1 -2.66 2.09h-4a2.748 2.748 0 0 1 -2.75-2.75v-4a2.736 2.736 0 0 1 2.09-2.66 2.391 2.391 0 0 1 .66-.09h4a2.748 2.748 0 0 1 2.75 2.75z" fill="#64c1e2"/><path d="m10.75 4v3.75h-3.75a2.748 2.748 0 0 1 -2.75-2.75v-3.75h3.75a2.748 2.748 0 0 1 2.75 2.75z" fill="#81d4fa"/><path d="m22.75 4v3.75h-3.75a2.748 2.748 0 0 1 -2.75-2.75v-3.75h3.75a2.748 2.748 0 0 1 2.75 2.75z" fill="#ce93d8"/><path d="m10.75 16v3.75h-3.75a2.748 2.748 0 0 1 -2.75-2.75v-3.75h3.75a2.748 2.748 0 0 1 2.75 2.75z" fill="#81d4fa"/><path d="m22.75 16v3.75h-3.75a2.748 2.748 0 0 1 -2.75-2.75v-3.75h3.75a2.748 2.748 0 0 1 2.75 2.75z" fill="#81d4fa"/><g fill="#1b1464"><path d="m20 22.75h-4a2.752 2.752 0 0 1 -2.75-2.75v-4a2.752 2.752 0 0 1 2.75-2.75h4a.75.75 0 0 1 0 1.5h-4a1.252 1.252 0 0 0 -1.25 1.25v4a1.252 1.252 0 0 0 1.25 1.25h4a1.252 1.252 0 0 0 1.25-1.25v-4a.75.75 0 0 1 1.5 0v4a2.752 2.752 0 0 1 -2.75 2.75z"/><path d="m8 10.75h-4a2.752 2.752 0 0 1 -2.75-2.75v-4a2.752 2.752 0 0 1 2.75-2.75h4a2.752 2.752 0 0 1 2.75 2.75v4a2.752 2.752 0 0 1 -2.75 2.75zm-4-8a1.252 1.252 0 0 0 -1.25 1.25v4a1.252 1.252 0 0 0 1.25 1.25h4a1.252 1.252 0 0 0 1.25-1.25v-4a1.252 1.252 0 0 0 -1.25-1.25z"/><path d="m20 10.75h-4a2.752 2.752 0 0 1 -2.75-2.75v-4a2.752 2.752 0 0 1 2.75-2.75h4a2.752 2.752 0 0 1 2.75 2.75v4a2.752 2.752 0 0 1 -2.75 2.75zm-4-8a1.252 1.252 0 0 0 -1.25 1.25v4a1.252 1.252 0 0 0 1.25 1.25h4a1.252 1.252 0 0 0 1.25-1.25v-4a1.252 1.252 0 0 0 -1.25-1.25z"/><path d="m8 22.75h-4a2.752 2.752 0 0 1 -2.75-2.75v-4a2.752 2.752 0 0 1 2.75-2.75h4a2.752 2.752 0 0 1 2.75 2.75v4a2.752 2.752 0 0 1 -2.75 2.75zm-4-8a1.252 1.252 0 0 0 -1.25 1.25v4a1.252 1.252 0 0 0 1.25 1.25h4a1.252 1.252 0 0 0 1.25-1.25v-4a1.252 1.252 0 0 0 -1.25-1.25z"/></g></svg>